<svg width="3202" height="734" viewBox="0 0 3202 734" fill="none" xmlns="http://www.w3.org/2000/svg">
<path d="M149.909 457.511C121.462 457.511 95.8221 451.142 72.9895 438.404C50.5312 425.292 32.7517 407.497 19.651 385.019C6.55033 362.166 0 336.129 0 306.907C0 277.311 6.55033 251.274 19.651 228.796C32.7517 206.317 50.5312 188.71 72.9895 175.972C95.4478 163.234 121.088 156.865 149.909 156.865C179.105 156.865 204.932 163.234 227.39 175.972C250.223 188.71 268.002 206.317 280.729 228.796C293.829 251.274 300.38 277.311 300.38 306.907C300.38 336.129 293.829 362.166 280.729 385.019C268.002 407.497 250.223 425.292 227.39 438.404C204.558 451.142 178.731 457.511 149.909 457.511ZM149.909 422.108C171.244 422.108 190.147 417.424 206.616 408.059C223.086 398.318 235.999 384.831 245.357 367.598C255.089 349.99 259.955 329.76 259.955 306.907C259.955 283.68 255.089 263.449 245.357 246.216C235.999 228.983 223.086 215.683 206.616 206.317C190.147 196.577 171.432 191.707 150.471 191.707C129.509 191.707 110.794 196.577 94.3248 206.317C77.8554 215.683 64.7547 228.983 55.0228 246.216C45.2909 263.449 40.4249 283.68 40.4249 306.907C40.4249 329.76 45.2909 349.99 55.0228 367.598C64.7547 384.831 77.8554 398.318 94.3248 408.059C110.794 417.424 129.322 422.108 149.909 422.108Z" fill="white"/>
<path d="M532.235 156.865C556.191 156.865 577.152 161.548 595.118 170.914C613.459 179.906 627.683 193.767 637.789 212.499C648.27 231.231 653.51 254.833 653.51 283.305V454.701H613.647V287.239C613.647 256.144 605.786 232.729 590.065 216.995C574.719 200.885 553.009 192.83 524.936 192.83C503.975 192.83 485.634 197.138 469.914 205.755C454.567 213.997 442.589 226.173 433.98 242.282C425.746 258.017 421.628 277.124 421.628 299.602V454.701H381.765V159.675H419.944L419.675 213.819C429.032 192.465 438.098 187.399 458.684 175.41C479.271 163.047 503.788 156.865 532.235 156.865Z" fill="white"/>
<path d="M886.744 456.837C856.051 456.837 829.101 450.468 805.894 437.73C782.687 424.618 764.534 406.823 751.433 384.345C738.332 361.492 731.782 335.455 731.782 306.233C731.782 277.012 737.958 251.162 750.31 228.683C763.036 206.205 780.255 188.597 801.964 175.86C824.048 162.747 848.752 156.191 876.077 156.191C903.775 156.191 928.292 162.56 949.627 175.298C971.337 187.661 988.368 205.269 1000.72 228.122C1013.07 250.6 1019.25 276.637 1019.25 306.233C1019.25 308.106 1019.06 310.166 1018.69 312.414C1018.69 314.287 1018.69 316.348 1018.69 318.596L770.852 317.869L770.964 303.341L771.077 288.812H981.133C981.133 267.458 976.952 260.34 967.594 243.856C958.611 226.998 946.259 213.885 930.538 204.519C914.817 195.153 896.663 190.471 876.077 190.471C855.864 190.471 837.71 195.153 821.615 204.519C805.52 213.885 792.981 226.998 783.997 243.856C775.014 260.715 771.077 267.083 771.077 288.812L770.852 317.869C770.852 340.348 775.388 350.253 785.12 367.486C795.227 384.345 809.076 397.644 826.668 407.385C844.635 416.75 865.035 421.434 887.867 421.434C905.834 421.434 922.49 418.249 937.837 411.88C953.558 405.512 967.033 395.771 978.262 382.659L1000.72 408.509C987.619 424.243 971.15 436.232 951.312 444.474C931.848 452.716 910.325 456.837 886.744 456.837Z" fill="white"/>
<path d="M1766.98 457.511C1742.65 457.511 1719.63 454.139 1697.92 447.396C1676.21 440.278 1659.18 431.474 1646.82 420.984L1664.79 389.514C1676.77 398.505 1692.12 406.373 1710.83 413.116C1729.55 419.485 1749.2 422.67 1769.78 422.67C1797.86 422.67 1818.07 418.362 1830.42 409.745C1842.77 400.754 1848.95 388.952 1848.95 374.341C1848.95 363.477 1845.39 355.048 1838.28 349.054C1831.54 342.685 1822.56 338.002 1811.33 335.005C1800.1 331.633 1787.56 328.824 1773.71 326.576C1759.86 324.328 1746.02 321.705 1732.17 318.708C1718.69 315.711 1706.34 311.403 1695.11 305.783C1683.88 299.789 1674.71 291.734 1667.6 281.619C1660.86 271.504 1657.49 258.017 1657.49 241.159C1657.49 225.049 1661.98 210.626 1670.97 197.888C1679.95 185.15 1693.05 175.223 1710.27 168.104C1727.86 160.612 1749.2 156.865 1774.28 156.865C1793.37 156.865 1812.45 159.488 1831.54 164.733C1850.63 169.603 1866.35 176.159 1878.71 184.401L1861.3 216.433C1848.2 207.441 1834.16 201.072 1819.19 197.326C1804.22 193.205 1789.25 191.145 1774.28 191.145C1747.7 191.145 1728.05 195.827 1715.32 205.193C1702.97 214.184 1696.79 225.798 1696.79 240.034C1696.79 251.274 1700.16 260.078 1706.9 266.447C1714.01 272.815 1723.18 277.873 1734.41 281.619C1746.02 284.991 1758.55 287.801 1772.03 290.049C1785.88 292.296 1799.54 295.106 1813.02 298.478C1826.87 301.475 1839.4 305.783 1850.63 311.403C1862.24 316.648 1871.41 324.328 1878.14 334.443C1885.26 344.184 1888.81 357.108 1888.81 373.218C1888.81 390.451 1883.95 405.436 1874.21 418.174C1864.86 430.537 1851.01 440.278 1832.67 447.396C1814.7 454.139 1792.8 457.511 1766.98 457.511Z" fill="white"/>
<path d="M2087.17 457.511C2056.47 457.511 2029.52 451.142 2006.32 438.404C1983.11 425.292 1964.95 407.497 1951.85 385.019C1938.75 362.166 1932.2 336.129 1932.2 306.907C1932.2 277.686 1938.38 251.836 1950.73 229.357C1963.46 206.879 1980.68 189.271 2002.39 176.534C2024.47 163.421 2049.17 156.865 2076.5 156.865C2104.2 156.865 2128.71 163.234 2150.05 175.972C2171.76 188.335 2188.79 205.943 2201.14 228.796C2213.49 251.274 2219.67 277.311 2219.67 306.907C2219.67 308.78 2219.48 310.841 2219.11 313.088C2219.11 314.962 2219.11 317.022 2219.11 319.27H1971.5V289.486H2181.55C2181.55 268.132 2177.37 261.014 2168.02 244.53C2159.03 227.672 2146.68 214.559 2130.96 205.193C2115.24 195.827 2097.08 191.145 2076.5 191.145C2056.28 191.145 2038.13 195.827 2022.04 205.193C2005.94 214.559 1993.4 227.672 1984.42 244.53C1975.44 261.389 1971.5 267.757 1971.5 289.486V319.27C1971.5 341.748 1975.81 350.927 1985.54 368.16C1995.65 385.019 2009.5 398.318 2027.09 408.059C2045.06 417.424 2065.46 422.108 2088.29 422.108C2106.25 422.108 2122.91 418.923 2138.26 412.554C2153.98 406.186 2167.45 396.445 2178.68 383.333L2201.14 409.183C2188.04 424.917 2171.57 436.906 2151.73 445.148C2132.27 453.39 2110.75 457.511 2087.17 457.511Z" fill="white"/>
<path d="M2371.12 454.701L2240.3 159.675H2281.85L2391.9 411.905L2504.19 159.675H2543.49L2412.11 454.701H2371.12Z" fill="white"/>
<path d="M2717.13 457.147C2686.44 457.147 2659.49 450.778 2636.28 438.04C2613.08 424.928 2594.92 407.133 2581.82 384.655C2568.72 361.802 2562.17 335.765 2562.17 306.543C2562.17 277.322 2568.35 251.472 2580.7 228.993C2593.43 206.515 2610.64 188.907 2632.35 176.17C2654.44 163.057 2679.14 156.501 2706.47 156.501C2734.16 156.501 2758.68 162.87 2780.02 175.608C2801.73 187.971 2818.76 205.579 2831.11 228.432C2843.46 250.91 2849.64 276.947 2849.64 306.543C2849.64 308.416 2849.45 310.477 2849.08 312.724C2849.08 314.598 2849.08 316.658 2849.08 318.906H2601.29L2600.91 304.147L2601.47 289.122H2811.52C2811.52 267.768 2807.34 260.65 2797.98 244.166C2789 227.308 2776.65 214.195 2760.93 204.829C2745.21 195.463 2727.05 190.781 2706.47 190.781C2686.25 190.781 2668.1 195.463 2652.01 204.829C2635.91 214.195 2623.37 227.308 2614.39 244.166C2605.4 261.025 2601.47 267.393 2601.47 289.122L2600.91 304.147L2601.29 318.906C2601.29 341.384 2605.78 350.563 2615.51 367.796C2625.62 384.655 2639.47 397.954 2657.06 407.695C2675.02 417.06 2695.42 421.744 2718.26 421.744C2736.22 421.744 2752.88 418.559 2768.23 412.19C2783.95 405.822 2797.42 396.081 2808.65 382.969L2831.11 408.819C2818.01 424.553 2801.54 436.542 2781.7 444.784C2762.24 453.026 2740.72 457.147 2717.13 457.147Z" fill="white"/>
<path d="M3080.73 156.865C3104.68 156.865 3125.64 161.548 3143.61 170.914C3161.95 179.906 3176.17 193.767 3186.28 212.499C3196.76 231.231 3202 254.833 3202 283.305V454.701H3162.14V287.239C3162.14 256.144 3154.28 232.729 3138.56 216.995C3123.21 200.885 3101.5 192.83 3073.43 192.83C3052.47 192.83 3034.12 197.138 3018.4 205.755C3003.06 213.997 2991.08 226.173 2982.47 242.282C2974.24 258.017 2970.12 277.124 2970.12 299.602V454.701H2930.25V159.675H2968.43V213.362C2977.79 192.008 2986.59 187.399 3007.17 175.41C3027.76 163.047 3052.28 156.865 3080.73 156.865Z" fill="white"/>
<path d="M1201.06 733.925V638.626H1239.82C1249.98 638.626 1258.87 640.668 1266.48 644.752C1274.19 648.746 1280.18 654.328 1284.44 661.498C1288.7 668.668 1290.83 676.927 1290.83 686.276C1290.83 695.624 1288.7 703.883 1284.44 711.053C1280.18 718.223 1274.19 723.85 1266.48 727.935C1258.87 731.928 1249.98 733.925 1239.82 733.925H1201.06ZM1211.12 725.212H1239.28C1247.71 725.212 1255.01 723.578 1261.18 720.311C1267.44 716.953 1272.29 712.369 1275.73 706.561C1279.18 700.661 1280.9 693.899 1280.9 686.276C1280.9 678.561 1279.18 671.799 1275.73 665.99C1272.29 660.182 1267.44 655.644 1261.18 652.376C1255.01 649.018 1247.71 647.339 1239.28 647.339H1211.12V725.212Z" fill="#EA2127"/>
<path d="M997.695 722.143C991.681 722.143 986.26 720.796 981.432 718.103C976.684 715.331 972.925 711.568 970.155 706.815C967.385 701.984 966 696.479 966 690.3C966 684.043 967.385 678.538 970.155 673.785C972.925 669.033 976.684 665.31 981.432 662.617C986.181 659.924 991.602 658.577 997.695 658.577C1003.87 658.577 1009.33 659.924 1014.08 662.617C1018.9 665.31 1022.66 669.033 1025.35 673.785C1028.12 678.538 1029.51 684.043 1029.51 690.3C1029.51 696.479 1028.12 701.984 1025.35 706.815C1022.66 711.568 1018.9 715.331 1014.08 718.103C1009.25 720.796 1003.79 722.143 997.695 722.143ZM997.695 714.657C1002.21 714.657 1006.2 713.667 1009.68 711.687C1013.17 709.627 1015.9 706.776 1017.88 703.132C1019.93 699.409 1020.96 695.132 1020.96 690.3C1020.96 685.389 1019.93 681.112 1017.88 677.468C1015.9 673.825 1013.17 671.013 1009.68 669.033C1006.2 666.973 1002.25 665.943 997.814 665.943C993.382 665.943 989.425 666.973 985.943 669.033C982.461 671.013 979.691 673.825 977.633 677.468C975.576 681.112 974.547 685.389 974.547 690.3C974.547 695.132 975.576 699.409 977.633 703.132C979.691 706.776 982.461 709.627 985.943 711.687C989.425 713.667 993.343 714.657 997.695 714.657Z" fill="white"/>
<path d="M1078.53 658.577C1083.6 658.577 1088.03 659.567 1091.83 661.547C1095.7 663.448 1098.71 666.379 1100.85 670.34C1103.06 674.3 1104.17 679.29 1104.17 685.31V721.548H1095.74V686.142C1095.74 679.568 1094.08 674.617 1090.76 671.29C1087.51 667.884 1082.92 666.181 1076.99 666.181C1072.56 666.181 1068.68 667.092 1065.35 668.914C1062.11 670.656 1059.58 673.231 1057.76 676.637C1056.02 679.963 1055.14 684.003 1055.14 688.756V721.548H1046.72V659.171H1054.79L1054.73 670.619C1056.71 666.104 1058.63 665.033 1062.98 662.498C1067.33 659.884 1072.52 658.577 1078.53 658.577Z" fill="white"/>
<path d="M1153.48 722C1147 722 1141.3 720.653 1136.39 717.96C1131.48 715.188 1127.65 711.426 1124.88 706.673C1122.11 701.841 1120.72 696.336 1120.72 690.158C1120.72 683.979 1122.03 678.514 1124.64 673.761C1127.33 669.009 1130.97 665.286 1135.56 662.593C1140.23 659.821 1145.45 658.434 1151.23 658.434C1157.09 658.434 1162.27 659.781 1166.78 662.474C1171.37 665.088 1174.97 668.811 1177.58 673.643C1180.19 678.395 1181.5 683.9 1181.5 690.158C1181.5 690.554 1181.46 690.989 1181.38 691.465C1181.38 691.861 1181.38 692.296 1181.38 692.772L1128.98 692.618L1129.01 689.546L1129.03 686.475H1173.44C1173.44 681.96 1172.56 680.455 1170.58 676.969C1168.68 673.405 1166.07 670.633 1162.74 668.652C1159.42 666.672 1155.58 665.682 1151.23 665.682C1146.96 665.682 1143.12 666.672 1139.71 668.652C1136.31 670.633 1133.66 673.405 1131.76 676.969C1129.86 680.534 1129.03 681.88 1129.03 686.475L1128.98 692.618C1128.98 697.371 1129.94 699.465 1132 703.109C1134.14 706.673 1137.06 709.485 1140.78 711.544C1144.58 713.525 1148.89 714.515 1153.72 714.515C1157.52 714.515 1161.04 713.841 1164.29 712.495C1167.61 711.148 1170.46 709.089 1172.83 706.317L1177.58 711.782C1174.81 715.109 1171.33 717.643 1167.14 719.386C1163.02 721.129 1158.47 722 1153.48 722Z" fill="white"/>
<path d="M1339.59 722.143C1334.45 722.143 1329.58 721.43 1324.99 720.004C1320.4 718.499 1316.8 716.637 1314.19 714.42L1317.99 707.766C1320.52 709.667 1323.76 711.33 1327.72 712.756C1331.68 714.103 1335.83 714.776 1340.19 714.776C1346.12 714.776 1350.39 713.865 1353.01 712.043C1355.62 710.142 1356.92 707.647 1356.92 704.558C1356.92 702.261 1356.17 700.479 1354.67 699.211C1353.24 697.865 1351.34 696.875 1348.97 696.241C1346.6 695.528 1343.95 694.934 1341.02 694.459C1338.09 693.984 1335.16 693.429 1332.23 692.795C1329.38 692.162 1326.77 691.251 1324.4 690.063C1322.02 688.795 1320.08 687.092 1318.58 684.954C1317.16 682.815 1316.44 679.964 1316.44 676.399C1316.44 672.993 1317.39 669.943 1319.29 667.25C1321.19 664.557 1323.96 662.458 1327.6 660.953C1331.32 659.369 1335.83 658.577 1341.14 658.577C1345.17 658.577 1349.21 659.131 1353.24 660.24C1357.28 661.27 1360.6 662.656 1363.22 664.399L1359.54 671.171C1356.77 669.27 1353.8 667.924 1350.63 667.132C1347.47 666.26 1344.3 665.825 1341.14 665.825C1335.52 665.825 1331.36 666.815 1328.67 668.795C1326.06 670.696 1324.75 673.151 1324.75 676.161C1324.75 678.538 1325.47 680.399 1326.89 681.746C1328.39 683.092 1330.33 684.162 1332.71 684.954C1335.16 685.667 1337.81 686.261 1340.66 686.736C1343.59 687.211 1346.48 687.805 1349.33 688.518C1352.25 689.152 1354.91 690.063 1357.28 691.251C1359.73 692.36 1361.67 693.984 1363.1 696.122C1364.6 698.182 1365.35 700.914 1365.35 704.32C1365.35 707.964 1364.32 711.132 1362.27 713.826C1360.29 716.439 1357.36 718.499 1353.48 720.004C1349.68 721.43 1345.05 722.143 1339.59 722.143Z" fill="white"/>
<path d="M1407.29 722.143C1400.8 722.143 1395.1 720.796 1390.2 718.103C1385.29 715.331 1381.45 711.568 1378.68 706.815C1375.91 701.984 1374.53 696.479 1374.53 690.3C1374.53 684.122 1375.83 678.657 1378.44 673.904C1381.13 669.151 1384.77 665.429 1389.36 662.735C1394.03 659.963 1399.26 658.577 1405.03 658.577C1410.89 658.577 1416.07 659.924 1420.59 662.617C1425.18 665.231 1428.78 668.953 1431.39 673.785C1434 678.538 1435.31 684.043 1435.31 690.3C1435.31 690.696 1435.27 691.132 1435.19 691.607C1435.19 692.003 1435.19 692.439 1435.19 692.914H1382.83V686.617H1427.25C1427.25 682.102 1426.36 680.597 1424.38 677.112C1422.48 673.548 1419.87 670.775 1416.55 668.795C1413.23 666.815 1409.39 665.825 1405.03 665.825C1400.76 665.825 1396.92 666.815 1393.52 668.795C1390.12 670.775 1387.47 673.548 1385.57 677.112C1383.67 680.676 1382.83 682.023 1382.83 686.617V692.914C1382.83 697.667 1383.75 699.607 1385.8 703.251C1387.94 706.816 1390.87 709.627 1394.59 711.687C1398.39 713.667 1402.7 714.657 1407.53 714.657C1411.33 714.657 1414.85 713.984 1418.09 712.637C1421.42 711.291 1424.27 709.231 1426.64 706.459L1431.39 711.924C1428.62 715.251 1425.14 717.786 1420.94 719.529C1416.83 721.271 1412.28 722.143 1407.29 722.143Z" fill="white"/>
<path d="M1467.33 721.548L1439.67 659.171H1448.45L1471.72 712.5L1495.46 659.171H1503.77L1475.99 721.548H1467.33Z" fill="white"/>
<path d="M1540.48 722.066C1534 722.066 1528.3 720.719 1523.39 718.026C1518.48 715.254 1514.65 711.491 1511.88 706.739C1509.11 701.907 1507.72 696.402 1507.72 690.223C1507.72 684.045 1509.03 678.58 1511.64 673.827C1514.33 669.074 1517.97 665.352 1522.56 662.658C1527.23 659.886 1532.45 658.5 1538.23 658.5C1544.09 658.5 1549.27 659.847 1553.78 662.54C1558.37 665.154 1561.97 668.876 1564.58 673.708C1567.19 678.461 1568.5 683.966 1568.5 690.223C1568.5 690.619 1568.46 691.055 1568.38 691.53C1568.38 691.926 1568.38 692.362 1568.38 692.837H1515.99L1515.91 689.717L1516.03 686.54H1560.44C1560.44 682.025 1559.56 680.52 1557.58 677.035C1555.68 673.471 1553.07 670.698 1549.74 668.718C1546.42 666.738 1542.58 665.748 1538.23 665.748C1533.96 665.748 1530.12 666.738 1526.71 668.718C1523.31 670.698 1520.66 673.471 1518.76 677.035C1516.86 680.599 1516.03 681.946 1516.03 686.54L1515.91 689.717L1515.99 692.837C1515.99 697.59 1516.94 699.531 1519 703.174C1521.14 706.739 1524.06 709.55 1527.78 711.61C1531.58 713.59 1535.89 714.58 1540.72 714.58C1544.52 714.58 1548.04 713.907 1551.29 712.56C1554.61 711.214 1557.46 709.154 1559.83 706.382L1564.58 711.848C1561.81 715.174 1558.33 717.709 1554.14 719.452C1550.02 721.194 1545.47 722.066 1540.48 722.066Z" fill="white"/>
<path d="M1617.36 658.577C1622.42 658.577 1626.86 659.567 1630.65 661.547C1634.53 663.448 1637.54 666.379 1639.68 670.34C1641.89 674.3 1643 679.29 1643 685.31V721.548H1634.57V686.142C1634.57 679.568 1632.91 674.617 1629.59 671.29C1626.34 667.884 1621.75 666.181 1615.82 666.181C1611.38 666.181 1607.51 667.092 1604.18 668.914C1600.94 670.656 1598.4 673.231 1596.58 676.637C1594.84 679.963 1593.97 684.003 1593.97 688.756V721.548H1585.54V659.171H1593.62V670.522C1595.6 666.007 1597.46 665.033 1601.81 662.498C1606.16 659.884 1611.34 658.577 1617.36 658.577Z" fill="white"/>
<path d="M1308.4 66.1391L1114.4 63.3791C1094.92 62.4261 1077.62 58.5647 1061.33 50.0868L1035.69 36.646C1036.68 51.6519 1040.45 66.3419 1046.82 79.9636C1048.06 82.6493 1049.39 85.2607 1050.79 87.8227C1051.2 88.5529 1051.66 89.2583 1052.03 89.9885C1052.99 91.6717 1053.98 93.3426 1055.01 94.9391C1055.72 96.053 1056.48 97.1545 1057.22 98.2561C1057.96 99.3576 1058.96 100.806 1059.87 102.056C1060.6 103.058 1061.34 104.036 1062.09 105.026C1063.33 106.585 1064.56 108.132 1065.8 109.642C1066.26 110.199 1066.7 110.756 1067.17 111.301C1075.09 120.386 1083.88 128.676 1093.4 136.054C1094.97 137.291 1096.55 138.529 1098.17 139.668C1098.77 140.101 1099.26 140.509 1099.83 140.905C1142.42 172.317 1195.45 186.513 1264.54 187.936H1317.46C1399.63 187.936 1436.06 232.12 1436.06 315.884C1436.06 400.143 1389.59 440.317 1327.79 444.055H1327.7C1324.55 444.24 1321.38 444.364 1318.16 444.364H1264.59C1192.21 446.245 1163.41 493.35 1110.94 526.792L1059 558.017L1049.11 563.995L1308.65 563.859C1471.43 563.859 1581.2 463.065 1581.2 315.884C1581.1 175.052 1481.16 66.2257 1308.4 66.1391Z" fill="white"/>
<path d="M1259.98 89.2096L1179.41 116.104C1204.89 111.017 1301.03 105.547 1367.09 145.127C1396.2 158.221 1427.88 161.439 1458.46 168.766C1480.6 174.088 1484.43 181.055 1481.28 200.449C1503.02 199.113 1520.22 191.217 1531.38 171.983C1536.62 162.949 1533.5 151.958 1522.14 147.231C1497.41 136.946 1475.98 130.634 1451.81 118.987C1446.71 116.512 1441.15 111.859 1439.08 106.846C1429.6 83.9373 1412.08 70.9543 1390.24 60.9294C1364.27 49.048 1338.82 35.6814 1313.93 21.597C1304.64 16.3493 1297.51 7.27737 1289.46 0C1289.46 15.9161 1293.64 25.347 1318.96 64.9765C1282.22 50.8797 1252.73 30.9536 1222.26 7.46301C1225.03 18.7132 1227.8 29.9511 1230.78 42.1171C1125.06 46.7336 1087.47 79.9644 1033.57 158.035C1111.3 94.4077 1155.13 79.3827 1259.98 89.2096Z" fill="#EA2127"/>
<path d="M1419.61 206.65C1396.64 212.306 1391.33 197.813 1384.98 184.286C1371.38 155.362 1346.38 146.426 1317.55 143.035C1283.4 139.013 1250.93 145.263 1219.63 160.894C1224.8 160.436 1229.97 159.904 1235.14 159.545C1274.25 156.859 1310.89 162.874 1340.52 191.291C1347.01 197.479 1353.76 204.571 1357.27 212.615C1363.53 226.972 1374.3 228.903 1386.61 225.363C1397.99 222.083 1419.69 208.321 1419.61 206.65Z" fill="#EA2127"/>
<path d="M1579.89 338.026C1579.89 337.123 1579.89 336.207 1579.89 335.291C1579.89 315.204 1570.28 291.813 1550.45 277.592C1508.95 247.653 1477.22 251.44 1447.47 207.591C1454.88 240.314 1475.46 259.782 1489.51 272.183C1497.34 281.936 1523.76 291.627 1523.9 319.771C1523.91 325.694 1522.75 331.56 1520.49 337.034C1518.23 342.508 1514.92 347.481 1510.73 351.669C1506.55 355.857 1501.58 359.177 1496.11 361.438C1490.64 363.699 1484.78 364.858 1478.86 364.846C1457.44 364.846 1440.22 349.747 1435.66 329.685C1435.43 332.346 1434.99 334.846 1435.04 337.11C1435.04 337.544 1435.04 338.051 1435.04 338.658C1435.29 357.724 1443.03 375.924 1456.59 389.319C1470.15 402.714 1488.43 410.224 1507.48 410.224C1526.53 410.224 1544.82 402.714 1558.38 389.319C1571.93 375.924 1579.68 357.724 1579.92 338.658C1579.92 338.447 1579.91 338.236 1579.89 338.026Z" fill="#EA2127"/>
<path d="M1507.49 433.721C1489.76 433.731 1472.45 428.408 1457.78 418.444C1443.12 408.479 1431.79 394.333 1425.26 377.841C1403.54 426.927 1333.26 454.056 1271.03 439.798C1243.83 433.61 1216.85 419.736 1197.46 396.035C1214.3 456.68 1262.55 508.252 1325.59 527.56C1432.61 560.345 1529.35 498.809 1562.25 414.736C1546.66 427.057 1527.36 433.747 1507.49 433.721Z" fill="#EA2127"/>
</svg>
