<svg width="2222" height="2408" viewBox="0 0 2222 2408" fill="none" xmlns="http://www.w3.org/2000/svg">
<path d="M771.488 2407.75V2095.11H898.723C932.057 2095.11 961.224 2101.81 986.225 2115.21C1011.52 2128.31 1031.17 2146.62 1045.15 2170.14C1059.14 2193.67 1066.14 2220.76 1066.14 2251.43C1066.14 2282.1 1059.14 2309.19 1045.15 2332.72C1031.17 2356.24 1011.52 2374.7 986.225 2388.1C961.224 2401.2 932.057 2407.75 898.723 2407.75H771.488ZM804.525 2379.17H896.937C924.616 2379.17 948.575 2373.81 968.814 2363.09C989.35 2352.07 1005.27 2337.03 1016.58 2317.98C1027.89 2298.62 1033.55 2276.44 1033.55 2251.43C1033.55 2226.12 1027.89 2203.94 1016.58 2184.88C1005.27 2165.83 989.35 2150.94 968.814 2140.22C948.575 2129.2 924.616 2123.69 896.937 2123.69H804.525V2379.17Z" fill="#EA2127"/>
<path d="M104.028 2369.1C84.2875 2369.1 66.4949 2364.68 50.6504 2355.84C35.0657 2346.75 22.7277 2334.41 13.6366 2318.81C4.54555 2302.96 0 2284.9 0 2264.63C0 2244.1 4.54555 2226.04 13.6366 2210.45C22.7277 2194.86 35.0657 2182.65 50.6504 2173.81C66.2351 2164.98 84.0277 2160.56 104.028 2160.56C124.288 2160.56 142.211 2164.98 157.795 2173.81C173.64 2182.65 185.978 2194.86 194.809 2210.45C203.9 2226.04 208.446 2244.1 208.446 2264.63C208.446 2284.9 203.9 2302.96 194.809 2318.81C185.978 2334.41 173.64 2346.75 157.795 2355.84C141.951 2364.68 124.029 2369.1 104.028 2369.1ZM104.028 2344.54C118.834 2344.54 131.951 2341.29 143.38 2334.8C154.808 2328.04 163.77 2318.68 170.263 2306.73C177.017 2294.52 180.393 2280.49 180.393 2264.63C180.393 2248.52 177.017 2234.49 170.263 2222.54C163.77 2210.58 154.808 2201.36 143.38 2194.86C131.951 2188.11 118.963 2184.73 104.418 2184.73C89.872 2184.73 76.8847 2188.11 65.4559 2194.86C54.0271 2201.36 44.936 2210.58 38.1826 2222.54C31.4292 2234.49 28.0525 2248.52 28.0525 2264.63C28.0525 2280.49 31.4292 2294.52 38.1826 2306.73C44.936 2318.68 54.0271 2328.04 65.4559 2334.8C76.8847 2341.29 89.7421 2344.54 104.028 2344.54Z" fill="white"/>
<path d="M369.34 2160.56C385.964 2160.56 400.509 2163.81 412.977 2170.31C425.705 2176.54 435.575 2186.16 442.588 2199.15C449.861 2212.14 453.498 2228.51 453.498 2248.26V2367.15H425.835V2250.99C425.835 2229.42 420.38 2213.18 409.471 2202.27C398.821 2191.09 383.756 2185.51 364.275 2185.51C349.729 2185.51 337.002 2188.5 326.092 2194.47C315.443 2200.19 307.131 2208.63 301.157 2219.81C295.442 2230.72 292.585 2243.98 292.585 2259.57V2367.15H264.922V2162.51H291.416V2218.64L287.131 2208.11C293.624 2193.3 304.014 2181.74 318.3 2173.42C332.586 2164.85 349.599 2160.56 369.34 2160.56Z" fill="white"/>
<path d="M615.104 2369.1C593.805 2369.1 575.103 2364.68 558.999 2355.84C542.895 2346.75 530.297 2334.41 521.206 2318.81C512.115 2302.96 507.569 2284.9 507.569 2264.63C507.569 2244.36 511.855 2226.43 520.427 2210.84C529.258 2195.25 541.206 2183.04 556.272 2174.2C571.597 2165.11 588.74 2160.56 607.701 2160.56C626.922 2160.56 643.936 2164.98 658.741 2173.81C673.807 2182.39 685.625 2194.6 694.197 2210.45C702.768 2226.04 707.054 2244.1 707.054 2264.63C707.054 2265.93 706.924 2267.36 706.664 2268.92C706.664 2270.22 706.664 2271.65 706.664 2273.21H528.609V2252.55H691.859L680.95 2260.74C680.95 2245.92 677.703 2232.8 671.209 2221.37C664.975 2209.67 656.404 2200.58 645.494 2194.08C634.585 2187.59 621.987 2184.34 607.701 2184.34C593.675 2184.34 581.077 2187.59 569.908 2194.08C558.739 2200.58 550.038 2209.67 543.804 2221.37C537.57 2233.06 534.453 2246.44 534.453 2261.52V2265.8C534.453 2281.39 537.83 2295.17 544.583 2307.12C551.596 2318.81 561.207 2328.04 573.415 2334.8C585.883 2341.29 600.039 2344.54 615.883 2344.54C628.351 2344.54 639.91 2342.33 650.559 2337.91C661.469 2333.5 670.819 2326.74 678.612 2317.64L694.197 2335.58C685.105 2346.49 673.677 2354.8 659.91 2360.52C646.403 2366.24 631.468 2369.1 615.104 2369.1Z" fill="white"/>
<path d="M1226.18 2369.1C1209.29 2369.1 1193.32 2366.76 1178.25 2362.08C1163.19 2357.14 1151.37 2351.04 1142.8 2343.76L1155.27 2321.93C1163.58 2328.17 1174.23 2333.63 1187.22 2338.3C1200.2 2342.72 1213.84 2344.93 1228.13 2344.93C1247.61 2344.93 1261.63 2341.94 1270.2 2335.96C1278.78 2329.73 1283.06 2321.54 1283.06 2311.41C1283.06 2303.87 1280.59 2298.03 1275.66 2293.87C1270.98 2289.45 1264.75 2286.2 1256.96 2284.12C1249.17 2281.78 1240.46 2279.84 1230.85 2278.28C1221.24 2276.72 1211.63 2274.9 1202.02 2272.82C1192.67 2270.74 1184.1 2267.75 1176.31 2263.85C1168.51 2259.7 1162.15 2254.11 1157.22 2247.09C1152.54 2240.08 1150.2 2230.72 1150.2 2219.03C1150.2 2207.85 1153.32 2197.85 1159.55 2189.01C1165.79 2180.18 1174.88 2173.29 1186.83 2168.36C1199.03 2163.16 1213.84 2160.56 1231.24 2160.56C1244.49 2160.56 1257.74 2162.38 1270.98 2166.02C1284.23 2169.4 1295.14 2173.94 1303.71 2179.66L1291.63 2201.88C1282.54 2195.64 1272.8 2191.22 1262.41 2188.62C1252.02 2185.77 1241.63 2184.34 1231.24 2184.34C1212.8 2184.34 1199.16 2187.59 1190.33 2194.08C1181.76 2200.32 1177.48 2208.37 1177.48 2218.25C1177.48 2226.04 1179.81 2232.15 1184.49 2236.57C1189.42 2240.99 1195.79 2244.49 1203.58 2247.09C1211.63 2249.43 1220.33 2251.38 1229.68 2252.94C1239.3 2254.5 1248.78 2256.45 1258.13 2258.79C1267.74 2260.87 1276.44 2263.85 1284.23 2267.75C1292.28 2271.39 1298.65 2276.72 1303.32 2283.73C1308.26 2290.49 1310.73 2299.45 1310.73 2310.63C1310.73 2322.58 1307.35 2332.98 1300.59 2341.81C1294.1 2350.39 1284.49 2357.14 1271.76 2362.08C1259.3 2366.76 1244.1 2369.1 1226.18 2369.1Z" fill="white"/>
<path d="M1448.37 2369.1C1427.07 2369.1 1408.37 2364.68 1392.27 2355.84C1376.16 2346.75 1363.56 2334.41 1354.47 2318.81C1345.38 2302.96 1340.84 2284.9 1340.84 2264.63C1340.84 2244.36 1345.12 2226.43 1353.69 2210.84C1362.52 2195.25 1374.47 2183.04 1389.54 2174.2C1404.86 2165.11 1422.01 2160.56 1440.97 2160.56C1460.19 2160.56 1477.2 2164.98 1492.01 2173.81C1507.07 2182.39 1518.89 2194.6 1527.46 2210.45C1536.03 2226.04 1540.32 2244.1 1540.32 2264.63C1540.32 2265.93 1540.19 2267.36 1539.93 2268.92C1539.93 2270.22 1539.93 2271.65 1539.93 2273.21H1361.87V2252.55H1525.12L1514.22 2260.74C1514.22 2245.92 1510.97 2232.8 1504.48 2221.37C1498.24 2209.67 1489.67 2200.58 1478.76 2194.08C1467.85 2187.59 1455.25 2184.34 1440.97 2184.34C1426.94 2184.34 1414.34 2187.59 1403.17 2194.08C1392.01 2200.58 1383.3 2209.67 1377.07 2221.37C1370.84 2233.06 1367.72 2246.44 1367.72 2261.52V2265.8C1367.72 2281.39 1371.1 2295.17 1377.85 2307.12C1384.86 2318.81 1394.47 2328.04 1406.68 2334.8C1419.15 2341.29 1433.3 2344.54 1449.15 2344.54C1461.62 2344.54 1473.18 2342.33 1483.83 2337.91C1494.73 2333.5 1504.09 2326.74 1511.88 2317.64L1527.46 2335.58C1518.37 2346.49 1506.94 2354.8 1493.18 2360.52C1479.67 2366.24 1464.73 2369.1 1448.37 2369.1Z" fill="white"/>
<path d="M1645.42 2367.15L1554.64 2162.51H1583.47L1666.85 2352.34H1653.21L1737.76 2162.51H1765.03L1673.86 2367.15H1645.42Z" fill="white"/>
<path d="M1885.17 2369.1C1863.87 2369.1 1845.17 2364.68 1829.06 2355.84C1812.96 2346.75 1800.36 2334.41 1791.27 2318.81C1782.18 2302.96 1777.63 2284.9 1777.63 2264.63C1777.63 2244.36 1781.92 2226.43 1790.49 2210.84C1799.32 2195.25 1811.27 2183.04 1826.34 2174.2C1841.66 2165.11 1858.8 2160.56 1877.77 2160.56C1896.99 2160.56 1914 2164.98 1928.81 2173.81C1943.87 2182.39 1955.69 2194.6 1964.26 2210.45C1972.83 2226.04 1977.12 2244.1 1977.12 2264.63C1977.12 2265.93 1976.99 2267.36 1976.73 2268.92C1976.73 2270.22 1976.73 2271.65 1976.73 2273.21H1798.67V2252.55H1961.92L1951.01 2260.74C1951.01 2245.92 1947.77 2232.8 1941.27 2221.37C1935.04 2209.67 1926.47 2200.58 1915.56 2194.08C1904.65 2187.59 1892.05 2184.34 1877.77 2184.34C1863.74 2184.34 1851.14 2187.59 1839.97 2194.08C1828.8 2200.58 1820.1 2209.67 1813.87 2221.37C1807.63 2233.06 1804.52 2246.44 1804.52 2261.52V2265.8C1804.52 2281.39 1807.89 2295.17 1814.65 2307.12C1821.66 2318.81 1831.27 2328.04 1843.48 2334.8C1855.95 2341.29 1870.1 2344.54 1885.95 2344.54C1898.42 2344.54 1909.97 2342.33 1920.62 2337.91C1931.53 2333.5 1940.88 2326.74 1948.68 2317.64L1964.26 2335.58C1955.17 2346.49 1943.74 2354.8 1929.97 2360.52C1916.47 2366.24 1901.53 2369.1 1885.17 2369.1Z" fill="white"/>
<path d="M2137.84 2160.56C2154.47 2160.56 2169.01 2163.81 2181.48 2170.31C2194.21 2176.54 2204.08 2186.16 2211.09 2199.15C2218.36 2212.14 2222 2228.51 2222 2248.26V2367.15H2194.34V2250.99C2194.34 2229.42 2188.88 2213.18 2177.97 2202.27C2167.32 2191.09 2152.26 2185.51 2132.78 2185.51C2118.23 2185.51 2105.5 2188.5 2094.59 2194.47C2083.95 2200.19 2075.63 2208.63 2069.66 2219.81C2063.94 2230.72 2061.09 2243.98 2061.09 2259.57V2367.15H2033.42V2162.51H2059.92V2218.64L2055.63 2208.11C2062.13 2193.3 2072.52 2181.74 2086.8 2173.42C2101.09 2164.85 2118.1 2160.56 2137.84 2160.56Z" fill="white"/>
<path d="M1123.8 216.979L487.061 207.925C423.139 204.798 366.361 192.13 312.869 164.317L228.736 120.223C231.98 169.452 244.367 217.645 265.263 262.333C269.321 271.143 273.705 279.711 278.291 288.115C279.63 290.511 281.132 292.825 282.349 295.221C285.515 300.743 288.762 306.224 292.13 311.462C294.484 315.116 296.96 318.73 299.395 322.344C301.83 325.957 305.118 330.708 308.08 334.809C310.475 338.098 312.91 341.305 315.386 344.553C319.444 349.669 323.503 354.745 327.561 359.698C329.063 361.525 330.524 363.353 332.066 365.139C358.051 394.945 386.882 422.142 418.147 446.345C423.302 450.405 428.497 454.465 433.813 458.201C435.761 459.622 437.385 460.962 439.252 462.261C579.027 565.311 753.098 611.883 979.847 616.552H1153.55C1423.24 616.552 1542.81 761.504 1542.81 1036.3C1542.81 1312.73 1390.29 1444.53 1187.44 1456.79H1187.16C1176.81 1457.4 1166.42 1457.8 1155.83 1457.8H980.01C742.464 1463.97 647.941 1618.51 475.697 1728.22L305.239 1830.66L272.771 1850.27L1124.61 1849.82C1658.88 1849.82 2019.15 1519.15 2019.15 1036.3C2018.83 574.284 1690.82 217.263 1123.8 216.979Z" fill="white"/>
<path d="M964.876 292.666L700.423 380.896C784.069 364.208 1099.62 346.261 1316.43 476.109C1411.96 519.067 1515.94 529.624 1616.31 553.661C1689 571.12 1701.54 593.979 1691.23 657.604C1762.58 653.219 1819.03 627.314 1855.64 564.218C1872.85 534.577 1862.62 498.522 1825.32 483.012C1744.15 449.271 1673.82 428.563 1594.48 390.356C1577.75 382.236 1559.49 366.969 1552.71 350.525C1521.58 275.369 1464.07 232.776 1392.4 199.888C1307.17 160.909 1223.65 117.058 1141.95 70.8521C1111.47 53.6365 1088.05 23.8745 1061.63 0C1061.63 52.2153 1075.35 83.1547 1158.47 213.165C1037.89 166.918 941.093 101.548 841.091 24.4835C850.182 61.3915 859.274 98.259 869.055 138.172C522.051 153.316 398.672 262.335 221.76 518.458C476.879 309.719 620.754 260.427 964.876 292.666Z" fill="#EA2127"/>
<path d="M1488.79 677.946C1413.42 696.502 1395.97 648.956 1375.15 604.577C1330.51 509.688 1248.45 480.373 1153.84 469.248C1041.75 456.052 935.168 476.556 832.447 527.838C849.411 526.335 866.376 524.589 883.341 523.412C1011.71 514.601 1131.97 534.334 1229.21 627.558C1250.52 647.86 1272.68 671.125 1284.2 697.517C1304.74 744.616 1340.09 750.95 1380.51 739.338C1417.85 728.578 1489.08 683.428 1488.79 677.946Z" fill="#EA2127"/>
<path d="M2014.86 1108.95C2014.86 1105.98 2014.86 1102.98 2014.86 1099.97C2014.86 1034.07 1983.32 957.335 1918.22 910.682C1782.02 812.464 1677.88 824.888 1580.23 681.032C1604.58 788.386 1672.12 852.254 1718.22 892.939C1743.91 924.934 1830.64 956.726 1831.09 1049.06C1831.13 1068.49 1827.33 1087.73 1819.91 1105.69C1812.5 1123.65 1801.61 1139.96 1787.88 1153.7C1774.15 1167.44 1757.84 1178.33 1739.89 1185.75C1721.94 1193.17 1702.7 1196.97 1683.28 1196.93C1612.98 1196.93 1556.45 1147.4 1541.47 1081.58C1540.74 1090.31 1539.28 1098.51 1539.44 1105.94C1539.44 1107.36 1539.44 1109.03 1539.44 1111.02C1540.26 1173.57 1565.67 1233.28 1610.17 1277.22C1654.67 1321.16 1714.68 1345.8 1777.21 1345.8C1839.74 1345.8 1899.75 1321.16 1944.25 1277.22C1988.75 1233.28 2014.16 1173.57 2014.98 1111.02C2014.98 1110.32 2014.94 1109.63 2014.86 1108.95Z" fill="#EA2127"/>
<path d="M1777.23 1422.89C1719.06 1422.92 1662.22 1405.46 1614.09 1372.77C1565.97 1340.08 1528.77 1293.67 1507.34 1239.57C1436.07 1400.6 1205.38 1489.6 1001.16 1442.82C911.872 1422.52 823.315 1377.01 759.678 1299.25C814.955 1498.21 973.319 1667.4 1180.22 1730.74C1531.49 1838.3 1848.99 1636.42 1956.98 1360.6C1905.79 1401.03 1842.45 1422.97 1777.23 1422.89Z" fill="#EA2127"/>
</svg>
