<svg width="677" height="734" viewBox="0 0 677 734" fill="none" xmlns="http://www.w3.org/2000/svg">
<path d="M235.057 733.925V638.626H273.823C283.98 638.626 292.866 640.668 300.483 644.752C308.191 648.746 314.176 654.328 318.438 661.498C322.7 668.668 324.831 676.927 324.831 686.276C324.831 695.624 322.7 703.883 318.438 711.053C314.176 718.223 308.191 723.85 300.483 727.935C292.866 731.928 283.98 733.925 273.823 733.925H235.057ZM245.123 725.212H273.279C281.713 725.212 289.012 723.578 295.179 720.311C301.436 716.953 306.287 712.369 309.733 706.561C313.179 700.661 314.902 693.899 314.902 686.276C314.902 678.561 313.179 671.799 309.733 665.99C306.287 660.182 301.436 655.644 295.179 652.376C289.012 649.018 281.713 647.339 273.279 647.339H245.123V725.212Z" fill="#EA2127"/>
<path d="M31.6953 722.143C25.6807 722.143 20.2597 720.796 15.4322 718.103C10.6838 715.331 6.9247 711.568 4.15482 706.815C1.38494 701.984 0 696.479 0 690.3C0 684.043 1.38494 678.538 4.15482 673.785C6.9247 669.033 10.6838 665.31 15.4322 662.617C20.1806 659.924 25.6016 658.577 31.6953 658.577C37.8682 658.577 43.3288 659.924 48.0772 662.617C52.9047 665.31 56.6638 669.033 59.3546 673.785C62.1244 678.538 63.5094 684.043 63.5094 690.3C63.5094 696.479 62.1244 701.984 59.3546 706.815C56.6638 711.568 52.9047 715.331 48.0772 718.103C43.2497 720.796 37.7891 722.143 31.6953 722.143ZM31.6953 714.657C36.2063 714.657 40.2028 713.667 43.685 711.687C47.1671 709.627 49.8974 706.776 51.8759 703.132C53.9335 699.409 54.9623 695.132 54.9623 690.3C54.9623 685.389 53.9335 681.112 51.8759 677.468C49.8974 673.825 47.1671 671.013 43.685 669.033C40.2028 666.973 36.2458 665.943 31.814 665.943C27.3822 665.943 23.4253 666.973 19.9431 669.033C16.461 671.013 13.6911 673.825 11.6335 677.468C9.57587 681.112 8.54706 685.389 8.54706 690.3C8.54706 695.132 9.57587 699.409 11.6335 703.132C13.6911 706.776 16.461 709.627 19.9431 711.687C23.4253 713.667 27.3427 714.657 31.6953 714.657Z" fill="white"/>
<path d="M112.531 658.577C117.596 658.577 122.027 659.567 125.826 661.547C129.704 663.448 132.711 666.379 134.848 670.34C137.064 674.3 138.172 679.29 138.172 685.31V721.548H129.743V686.142C129.743 679.568 128.082 674.617 124.758 671.29C121.513 667.884 116.923 666.181 110.987 666.181C106.556 666.181 102.678 667.092 99.354 668.914C96.1093 670.656 93.5768 673.231 91.7566 676.637C90.0155 679.963 89.145 684.003 89.145 688.756V721.548H80.7166V659.171H88.7888L88.7319 670.619C90.7104 666.104 92.6271 665.033 96.9798 662.498C101.332 659.884 106.516 658.577 112.531 658.577Z" fill="white"/>
<path d="M187.485 722C180.995 722 175.297 720.653 170.391 717.96C165.484 715.188 161.646 711.426 158.876 706.673C156.106 701.841 154.721 696.336 154.721 690.158C154.721 683.979 156.027 678.514 158.638 673.761C161.329 669.009 164.969 665.286 169.56 662.593C174.229 659.821 179.452 658.434 185.229 658.434C191.085 658.434 196.269 659.781 200.78 662.474C205.37 665.088 208.971 668.811 211.583 673.643C214.194 678.395 215.5 683.9 215.5 690.158C215.5 690.554 215.46 690.989 215.381 691.465C215.381 691.861 215.381 692.296 215.381 692.772L162.981 692.618L163.005 689.546L163.029 686.475H207.441C207.441 681.96 206.557 680.455 204.579 676.969C202.679 673.405 200.068 670.633 196.744 668.652C193.42 666.672 189.582 665.682 185.229 665.682C180.956 665.682 177.117 666.672 173.714 668.652C170.311 670.633 167.66 673.405 165.761 676.969C163.861 680.534 163.029 681.88 163.029 686.475L162.981 692.618C162.981 697.371 163.941 699.465 165.998 703.109C168.135 706.673 171.063 709.485 174.783 711.544C178.581 713.525 182.895 714.515 187.722 714.515C191.521 714.515 195.042 713.841 198.287 712.495C201.611 711.148 204.46 709.089 206.834 706.317L211.583 711.782C208.813 715.109 205.331 717.643 201.136 719.386C197.021 721.129 192.47 722 187.485 722Z" fill="white"/>
<path d="M373.592 722.143C368.448 722.143 363.581 721.43 358.991 720.004C354.401 718.499 350.8 716.637 348.189 714.42L351.987 707.766C354.52 709.667 357.765 711.33 361.721 712.756C365.678 714.103 369.833 714.776 374.186 714.776C380.121 714.776 384.395 713.865 387.007 712.043C389.618 710.142 390.924 707.647 390.924 704.558C390.924 702.261 390.172 700.479 388.668 699.211C387.244 697.865 385.345 696.875 382.97 696.241C380.596 695.528 377.945 694.934 375.017 694.459C372.089 693.984 369.161 693.429 366.232 692.795C363.383 692.162 360.772 691.251 358.398 690.063C356.023 688.795 354.085 687.092 352.581 684.954C351.156 682.815 350.444 679.964 350.444 676.399C350.444 672.993 351.394 669.943 353.293 667.25C355.193 664.557 357.962 662.458 361.603 660.953C365.322 659.369 369.833 658.577 375.136 658.577C379.172 658.577 383.208 659.131 387.244 660.24C391.28 661.27 394.604 662.656 397.216 664.399L393.536 671.171C390.766 669.27 387.798 667.924 384.632 667.132C381.467 666.26 378.301 665.825 375.136 665.825C369.517 665.825 365.362 666.815 362.671 668.795C360.06 670.696 358.754 673.151 358.754 676.161C358.754 678.538 359.466 680.399 360.891 681.746C362.394 683.092 364.333 684.162 366.707 684.954C369.161 685.667 371.812 686.261 374.661 686.736C377.589 687.211 380.478 687.805 383.327 688.518C386.255 689.152 388.906 690.063 391.28 691.251C393.733 692.36 395.672 693.984 397.097 696.122C398.6 698.182 399.352 700.914 399.352 704.32C399.352 707.964 398.323 711.132 396.266 713.826C394.287 716.439 391.359 718.499 387.481 720.004C383.683 721.43 379.053 722.143 373.592 722.143Z" fill="white"/>
<path d="M441.29 722.143C434.801 722.143 429.103 720.796 424.196 718.103C419.289 715.331 415.451 711.568 412.681 706.815C409.911 701.984 408.526 696.479 408.526 690.3C408.526 684.122 409.832 678.657 412.444 673.904C415.134 669.151 418.775 665.429 423.365 662.735C428.034 659.963 433.257 658.577 439.035 658.577C444.891 658.577 450.074 659.924 454.585 662.617C459.176 665.231 462.776 668.953 465.388 673.785C468 678.538 469.305 684.043 469.305 690.3C469.305 690.696 469.266 691.132 469.187 691.607C469.187 692.003 469.187 692.439 469.187 692.914H416.835V686.617H461.247C461.247 682.102 460.363 680.597 458.384 677.112C456.485 673.548 453.873 670.775 450.549 668.795C447.225 666.815 443.387 665.825 439.035 665.825C434.761 665.825 430.923 666.815 427.52 668.795C424.117 670.775 421.466 673.548 419.566 677.112C417.667 680.676 416.835 682.023 416.835 686.617V692.914C416.835 697.667 417.746 699.607 419.804 703.251C421.94 706.816 424.869 709.627 428.588 711.687C432.387 713.667 436.7 714.657 441.527 714.657C445.326 714.657 448.848 713.984 452.093 712.637C455.416 711.291 458.265 709.231 460.64 706.459L465.388 711.924C462.618 715.251 459.136 717.786 454.942 719.529C450.826 721.271 446.276 722.143 441.29 722.143Z" fill="white"/>
<path d="M501.327 721.548L473.668 659.171H482.452L505.72 712.5L529.461 659.171H537.771L509.993 721.548H501.327Z" fill="white"/>
<path d="M574.485 722.066C567.995 722.066 562.297 720.719 557.391 718.026C552.484 715.254 548.646 711.491 545.876 706.739C543.106 701.907 541.721 696.402 541.721 690.223C541.721 684.045 543.027 678.58 545.638 673.827C548.329 669.074 551.969 665.352 556.56 662.658C561.229 659.886 566.452 658.5 572.229 658.5C578.085 658.5 583.269 659.847 587.78 662.54C592.37 665.154 595.971 668.876 598.583 673.708C601.194 678.461 602.5 683.966 602.5 690.223C602.5 690.619 602.46 691.055 602.381 691.53C602.381 691.926 602.381 692.362 602.381 692.837H549.992L549.912 689.717L550.029 686.54H594.441C594.441 682.025 593.557 680.52 591.579 677.035C589.679 673.471 587.068 670.698 583.744 668.718C580.42 666.738 576.582 665.748 572.229 665.748C567.956 665.748 564.117 666.738 560.714 668.718C557.311 670.698 554.66 673.471 552.761 677.035C550.862 680.599 550.029 681.946 550.029 686.54L549.912 689.717L549.992 692.837C549.992 697.59 550.941 699.531 552.998 703.174C555.135 706.739 558.063 709.55 561.783 711.61C565.581 713.59 569.895 714.58 574.722 714.58C578.521 714.58 582.042 713.907 585.287 712.56C588.611 711.214 591.46 709.154 593.834 706.382L598.583 711.848C595.813 715.174 592.331 717.709 588.136 719.452C584.021 721.194 579.47 722.066 574.485 722.066Z" fill="white"/>
<path d="M651.359 658.577C656.424 658.577 660.856 659.567 664.654 661.547C668.532 663.448 671.539 666.379 673.676 670.34C675.892 674.3 677 679.29 677 685.31V721.548H668.572V686.142C668.572 679.568 666.91 674.617 663.586 671.29C660.341 667.884 655.751 666.181 649.816 666.181C645.384 666.181 641.506 667.092 638.182 668.914C634.937 670.656 632.405 673.231 630.585 676.637C628.844 679.963 627.973 684.003 627.973 688.756V721.548H619.545V659.171H627.617V670.522C629.595 666.007 631.455 665.033 635.808 662.498C640.161 659.884 645.344 658.577 651.359 658.577Z" fill="white"/>
<path d="M342.401 66.1391L148.398 63.3791C128.922 62.4261 111.623 58.5647 95.3251 50.0868L69.6914 36.646C70.6797 51.6519 74.4538 66.3419 80.8204 79.9636C82.0569 82.6493 83.3924 85.2607 84.7897 87.8227C85.1978 88.5529 85.6553 89.2583 86.0263 89.9885C86.9908 91.6717 87.98 93.3426 89.0063 94.9391C89.7235 96.053 90.4779 97.1545 91.2198 98.2561C91.9617 99.3576 92.9633 100.806 93.866 102.056C94.5956 103.058 95.3375 104.036 96.0918 105.026C97.3284 106.585 98.5649 108.132 99.8015 109.642C100.259 110.199 100.704 110.756 101.174 111.301C109.091 120.386 117.875 128.676 127.401 136.054C128.972 137.291 130.555 138.529 132.174 139.668C132.768 140.101 133.263 140.509 133.831 140.905C176.418 172.317 229.454 186.513 298.54 187.936H351.465C433.634 187.936 470.063 232.12 470.063 315.884C470.063 400.143 423.593 440.317 361.79 444.055H361.703C358.55 444.24 355.385 444.364 352.157 444.364H298.59C226.214 446.245 197.415 493.35 144.936 526.792L93.0004 558.017L83.108 563.995L342.648 563.859C505.428 563.859 615.197 463.065 615.197 315.884C615.098 175.052 515.16 66.2257 342.401 66.1391Z" fill="white"/>
<path d="M293.979 89.2096L213.405 116.104C238.891 111.017 335.033 105.547 401.089 145.127C430.198 158.221 461.878 161.439 492.458 168.766C514.605 174.088 518.426 181.055 515.285 200.449C537.023 199.113 554.224 191.217 565.378 171.983C570.621 162.949 567.505 151.958 556.141 147.231C531.41 136.946 509.98 130.634 485.805 118.987C480.711 116.512 475.146 111.859 473.081 106.846C463.597 83.9373 446.075 70.9543 424.237 60.9294C398.27 49.048 372.822 35.6814 347.93 21.597C338.643 16.3493 331.508 7.27737 323.458 0C323.458 15.9161 327.638 25.347 352.963 64.9765C316.225 50.8797 286.733 30.9536 256.264 7.46301C259.034 18.7132 261.804 29.9511 264.784 42.1171C159.059 46.7336 121.467 79.9644 67.5661 158.035C145.296 94.4077 189.132 79.3827 293.979 89.2096Z" fill="#EA2127"/>
<path d="M453.606 206.65C430.643 212.306 425.326 197.813 418.982 184.286C405.38 155.362 380.377 146.426 351.553 143.035C317.399 139.013 284.927 145.263 253.63 160.894C258.799 160.436 263.968 159.904 269.137 159.545C308.249 156.859 344.888 162.874 374.516 191.291C381.008 197.479 387.759 204.571 391.271 212.615C397.528 226.972 408.298 228.903 420.614 225.363C431.991 222.083 453.692 208.321 453.606 206.65Z" fill="#EA2127"/>
<path d="M613.888 338.026C613.888 337.123 613.888 336.207 613.888 335.291C613.888 315.204 604.28 291.813 584.445 277.592C542.947 247.653 511.217 251.44 481.465 207.591C488.885 240.314 509.461 259.782 523.508 272.183C531.336 281.936 557.761 291.627 557.897 319.771C557.908 325.694 556.751 331.56 554.492 337.034C552.233 342.508 548.916 347.481 544.732 351.669C540.547 355.857 535.578 359.177 530.109 361.438C524.64 363.699 518.779 364.858 512.861 364.846C491.444 364.846 474.219 349.747 469.656 329.685C469.434 332.346 468.988 334.846 469.038 337.11C469.038 337.544 469.038 338.051 469.038 338.658C469.287 357.724 477.029 375.924 490.587 389.319C504.146 402.714 522.43 410.224 541.481 410.224C560.532 410.224 578.817 402.714 592.375 389.319C605.934 375.924 613.676 357.724 613.925 338.658C613.924 338.447 613.912 338.236 613.888 338.026Z" fill="#EA2127"/>
<path d="M541.488 433.721C523.764 433.731 506.446 428.408 491.783 418.444C477.119 408.479 465.787 394.333 459.257 377.841C437.543 426.927 367.257 454.056 305.034 439.798C277.83 433.61 250.848 419.736 231.459 396.035C248.301 456.68 296.551 508.252 359.591 527.56C466.614 560.345 563.35 498.809 596.254 414.736C580.656 427.057 561.359 433.747 541.488 433.721Z" fill="#EA2127"/>
</svg>
